/* XPM */
static char *_6[] = {
/* columns rows colors chars-per-pixel */
"16 16 256 2 ",
"   c #145AA2",
".  c #2266AC",
"X  c #2468AD",
"o  c #266AAE",
"O  c #276AAF",
"+  c #286BB0",
"@  c #286CB0",
"#  c #296CB0",
"$  c #2A6DB2",
"%  c #2B6EB2",
"&  c #2D70B4",
"*  c #2D6FB3",
"=  c #2D70B3",
"-  c #2E70B4",
";  c #2F72B5",
":  c #3072B5",
">  c #3274B7",
",  c #3274B6",
"<  c #3374B7",
"1  c #3476B8",
"2  c #3576B9",
"3  c #3577B9",
"4  c #3678BA",
"5  c #3778BA",
"6  c #397ABC",
"7  c #3879BA",
"8  c #3A7ABC",
"9  c #3A7BBC",
"0  c #397ABB",
"q  c #3B7CBD",
"w  c #3C7CBE",
"e  c #3D7EBF",
"r  c #3C7CBD",
"t  c #3E7EBF",
"y  c #4080C0",
"u  c #4281C2",
"i  c #FBB041",
"p  c #DD6D26",
"a  c white",
"s  c black",
"d  c black",
"f  c black",
"g  c black",
"h  c black",
"j  c black",
"k  c black",
"l  c black",
"z  c black",
"x  c black",
"c  c black",
"v  c black",
"b  c black",
"n  c black",
"m  c black",
"M  c black",
"N  c black",
"B  c black",
"V  c black",
"C  c black",
"Z  c black",
"A  c black",
"S  c black",
"D  c black",
"F  c black",
"G  c black",
"H  c black",
"J  c black",
"K  c black",
"L  c black",
"P  c black",
"I  c black",
"U  c black",
"Y  c black",
"T  c black",
"R  c black",
"E  c black",
"W  c black",
"Q  c black",
"!  c black",
"~  c black",
"^  c black",
"/  c black",
"(  c black",
")  c black",
"_  c black",
"`  c black",
"'  c black",
"]  c black",
"[  c black",
"{  c black",
"}  c black",
"|  c black",
" . c black",
".. c black",
"X. c black",
"o. c black",
"O. c black",
"+. c black",
"@. c black",
"#. c black",
"$. c black",
"%. c black",
"&. c black",
"*. c black",
"=. c black",
"-. c black",
";. c black",
":. c black",
">. c black",
",. c black",
"<. c black",
"1. c black",
"2. c black",
"3. c black",
"4. c black",
"5. c black",
"6. c black",
"7. c black",
"8. c black",
"9. c black",
"0. c black",
"q. c black",
"w. c black",
"e. c black",
"r. c black",
"t. c black",
"y. c black",
"u. c black",
"i. c black",
"p. c black",
"a. c black",
"s. c black",
"d. c black",
"f. c black",
"g. c black",
"h. c black",
"j. c black",
"k. c black",
"l. c black",
"z. c black",
"x. c black",
"c. c black",
"v. c black",
"b. c black",
"n. c black",
"m. c black",
"M. c black",
"N. c black",
"B. c black",
"V. c black",
"C. c black",
"Z. c black",
"A. c black",
"S. c black",
"D. c black",
"F. c black",
"G. c black",
"H. c black",
"J. c black",
"K. c black",
"L. c black",
"P. c black",
"I. c black",
"U. c black",
"Y. c black",
"T. c black",
"R. c black",
"E. c black",
"W. c black",
"Q. c black",
"!. c black",
"~. c black",
"^. c black",
"/. c black",
"(. c black",
"). c black",
"_. c black",
"`. c black",
"'. c black",
"]. c black",
"[. c black",
"{. c black",
"}. c black",
"|. c black",
" X c black",
".X c black",
"XX c black",
"oX c black",
"OX c black",
"+X c black",
"@X c black",
"#X c black",
"$X c black",
"%X c black",
"&X c black",
"*X c black",
"=X c black",
"-X c black",
";X c black",
":X c black",
">X c black",
",X c black",
"<X c black",
"1X c black",
"2X c black",
"3X c black",
"4X c black",
"5X c black",
"6X c black",
"7X c black",
"8X c black",
"9X c black",
"0X c black",
"qX c black",
"wX c black",
"eX c black",
"rX c black",
"tX c black",
"yX c black",
"uX c black",
"iX c black",
"pX c black",
"aX c black",
"sX c black",
"dX c black",
"fX c black",
"gX c black",
"hX c black",
"jX c black",
"kX c black",
"lX c black",
"zX c black",
"xX c black",
"cX c black",
"vX c black",
"bX c black",
"nX c black",
"mX c black",
"MX c black",
"NX c black",
"BX c black",
"VX c black",
"CX c black",
"ZX c black",
"AX c black",
"SX c black",
"DX c black",
"FX c black",
"GX c black",
"HX c black",
"JX c black",
"KX c black",
"LX c black",
"PX c black",
"IX c black",
"UX c black",
/* pixels */
"p p p p p p p a                 ",
"p i i i i i i a   t w 9         ",
"p i a a a a a a   r 9 7   a a a ",
"p i a             8 5 3         ",
"p i a   u y t r 6 5 2 <         ",
"p i a   y a a 6 5 a a a   a a a ",
"p i a   e a 6 a 2 a : -         ",
"a a a   q a 5 a > a a a         ",
"        0 a 1 a : - % a   a a a ",
"        4 a > a & % # a   a i p ",
"a a a   1 a a = % a a a   a i p ",
"        , ; = % # O X .   a i p ",
"        ; = %             a i p ",
"a a a   * % @   a a a a a a i p ",
"        $ + o   a i i i i i i p ",
"                a p p p p p p p "
};
